Coordinates
version=1
nRows=26
nColumns=22
inDegrees=yes

Units are S.I. units (second, meters, Newtons, ...)
If the header above contains a line with 'inDegrees', this indicates whether rotational values are in degrees (yes) or radians (no).

endheader
time	pelvis_tilt	pelvis_list	pelvis_rotation	pelvis_tx	pelvis_ty	pelvis_tz	hip_flexion_r	hip_adduction_r	hip_rotation_r	knee_angle_r	ankle_angle_r	subtalar_angle_r	hip_flexion_l	hip_adduction_l	hip_rotation_l	knee_angle_l	ankle_angle_l	subtalar_angle_l	lumbar_extension	lumbar_bending	lumbar_rotation
      4.60000000	      0.39888173	      0.16784986	    288.62790658	     -0.57819435	      0.92862058	      0.58893429	     27.39764504	     -5.90393449	      7.79171579	    -56.28866099	      4.05283418	      4.66049958	      6.32561284	     10.66551744	      7.53310449	    -24.45574780	     14.37358552	    -14.27780943	     -7.06311750	     -4.01553729	     -9.71763922
      4.61000000	      0.24867645	      0.02322562	    290.00560464	     -0.57606533	      0.92904479	      0.59643101	     27.51929253	     -5.76538505	      7.96524329	    -53.64286415	      4.59117710	      4.42454986	      5.63071665	     10.43972650	      8.70374729	    -24.54442344	     14.60613066	    -14.30833672	     -7.23365667	     -3.74999025	    -10.46639059
      4.62000000	      0.08642179	     -0.11874805	    291.33770492	     -0.57403866	      0.92938549	      0.60392712	     27.55131729	     -5.58019851	      8.16992821	    -50.81859293	      4.91484691	      4.40747387	      4.97643563	     10.16701327	      9.78005366	    -24.65929115	     14.85366585	    -14.34041958	     -7.37900622	     -3.48347448	    -11.16211721
      4.63000000	     -0.07436775	     -0.27185369	    292.61067990	     -0.57213205	      0.92965176	      0.61144595	     27.48372131	     -5.35186217	      8.42656062	    -47.83457220	      5.10448175	      4.56178621	      4.34487643	      9.85471003	     10.74129125	    -24.80189746	     15.11295513	    -14.36269552	     -7.52068041	     -3.22830797	    -11.78289563
      4.64000000	     -0.22446563	     -0.42716650	    293.82019597	     -0.57033207	      0.92983295	      0.61900144	     27.33217959	     -5.09969154	      8.73854617	    -44.71068732	      5.17304066	      4.88195476	      3.73302690	      9.51518834	     11.58549537	    -24.95584589	     15.37822489	    -14.35726572	     -7.65316488	     -2.99589972	    -12.33507133
      4.65000000	     -0.35675480	     -0.58121514	    294.96598310	     -0.56862448	      0.92992479	      0.62658522	     27.10452706	     -4.84310272	      9.09938182	    -41.46172649	      5.14681051	      5.34498341	      3.13976713	      9.16172260	     12.33430574	    -25.12069458	     15.63762858	    -14.31676770	     -7.78076300	     -2.79313739	    -12.80657173
      4.66000000	     -0.46135929	     -0.71705608	    296.04602408	     -0.56697003	      0.92991044	      0.63423229	     26.82329207	     -4.61350376	      9.49493541	    -38.11342067	      5.03910592	      5.89087074	      2.55598710	      8.80865546	     12.98359170	    -25.26291323	     15.89273912	    -14.24662720	     -7.88590624	     -2.63400316	    -13.22074233
      4.67000000	     -0.52519431	     -0.85121485	    297.06346891	     -0.56535367	      0.92982647	      0.64190906	     26.46652054	     -4.42820609	      9.90847047	    -34.67181702	      4.87755630	      6.50904637	      1.96753102	      8.47084405	     13.57156751	    -25.40435812	     16.12186055	    -14.15683262	     -8.00152529	     -2.52273674	    -13.55165659
      4.68000000	     -0.54672158	     -0.97609249	    298.02552986	     -0.56372094	      0.92968074	      0.64965751	     26.04218048	     -4.30714034	     10.29876680	    -31.15887164	      4.66916406	      7.14841711	      1.35330091	      8.14769463	     14.10196278	    -25.50128045	     16.33265366	    -14.06202638	     -8.11460348	     -2.45775569	    -13.82964627
      4.69000000	     -0.51576484	     -1.10129814	    298.93437406	     -0.56203206	      0.92950300	      0.65748084	     25.53605336	     -4.26183979	     10.64214958	    -27.59095738	      4.43201841	      7.80096989	      0.68860470	      7.84612781	     14.59059048	    -25.54253711	     16.51988729	    -13.97239359	     -8.24204454	     -2.44012349	    -14.05508681
      4.70000000	     -0.43037147	     -1.23314225	    299.79773530	     -0.56024888	      0.92930870	      0.66538664	     24.94335809	     -4.29396542	     10.90797978	    -23.99763244	      4.17776365	      8.47491289	     -0.04081724	      7.56444106	     15.04507845	    -25.52221564	     16.68161816	    -13.89375116	     -8.38988211	     -2.46252052	    -14.24121244
      4.71000000	     -0.28344761	     -1.37739735	    300.61078393	     -0.55835909	      0.92910943	      0.67337926	     24.26422392	     -4.40063689	     11.08282909	    -20.41792038	      3.92077103	      9.20594127	     -0.85121591	      7.31085007	     15.48812177	    -25.43565119	     16.79954738	    -13.82725058	     -8.57075526	     -2.52725690	    -14.35557684
      4.72000000	     -0.07701333	     -1.53221761	    301.38037623	     -0.55635390	      0.92889733	      0.68147133	     23.51640201	     -4.57339472	     11.14623167	    -16.91512192	      3.65853214	      9.98655913	     -1.74769562	      7.07989575	     15.91836562	    -25.27142367	     16.88626033	    -13.77454707	     -8.77959337	     -2.63043707	    -14.42736592
      4.73000000	      0.18465338	     -1.70301592	    302.11089362	     -0.55425460	      0.92865841	      0.68966924	     22.71985933	     -4.79368388	     11.07045500	    -13.56736176	      3.41487629	     10.77432943	     -2.72235011	      6.86421935	     16.32651402	    -25.05365222	     16.95153321	    -13.73298548	     -9.02188658	     -2.76611364	    -14.47213296
      4.74000000	      0.50572539	     -1.86449429	    302.77391719	     -0.55213554	      0.92835946	      0.69799501	     21.93928911	     -5.04942111	     10.90489847	    -10.48199444	      3.16416419	     11.57991204	     -3.76440452	      6.68598116	     16.72147967	    -24.76511925	     16.98384371	    -13.70567610	     -9.27780653	     -2.96133582	    -14.44171079
      4.75000000	      0.84970138	     -2.03292427	    303.39265417	     -0.54998291	      0.92798734	      0.70644263	     21.20579161	     -5.29546625	     10.57920847	     -7.75864469	      2.94909906	     12.25761534	     -4.84450181	      6.50386579	     17.09210149	    -24.45252501	     16.99184352	    -13.68197740	     -9.54091782	     -3.16602545	    -14.38083580
      4.76000000	      1.22134258	     -2.18051138	    303.94838565	     -0.54786141	      0.92750872	      0.71497996	     20.58788395	     -5.53093680	     10.15094489	     -5.50453740	      2.73981549	     12.79027753	     -5.92504284	      6.35162718	     17.44995527	    -24.14215677	     16.98172918	    -13.66282590	     -9.79732229	     -3.40922785	    -14.24154815
      4.77000000	      1.59626148	     -2.32342825	    304.43156440	     -0.54575829	      0.92693097	      0.72365838	     20.09400009	     -5.71855892	      9.66334393	     -3.77575381	      2.62616560	     13.15873200	     -7.00539955	      6.19395653	     17.72636471	    -23.83408844	     16.96497869	    -13.64682709	    -10.03582203	     -3.65154056	    -14.07851060
      4.78000000	      1.95728717	     -2.43141641	    304.86990414	     -0.54366191	      0.92621248	      0.73239301	     19.78009552	     -5.87129327	      9.11075788	     -2.62959038	      2.56258960	     13.30612365	     -8.01852966	      6.04864861	     17.97836464	    -23.58154239	     16.93267339	    -13.62098534	    -10.23032557	     -3.89423219	    -13.88172857
      4.79000000	      2.28554447	     -2.49847193	    305.26323955	     -0.54154741	      0.92533599	      0.74119819	     19.64366642	     -5.98665279	      8.57944722	     -2.04371537	      2.57650403	     13.25412919	     -8.94190915	      5.91164622	     18.21763264	    -23.40184649	     16.88467232	    -13.57976436	    -10.35660705	     -4.12113758	    -13.66128297
      4.80000000	      2.58640762	     -2.52812929	    305.61466873	     -0.53940731	      0.92432285	      0.75007254	     19.68053352	     -6.07324929	      8.09314768	     -2.01920053	      2.62565150	     13.01507690	     -9.78348148	      5.78368790	     18.42584037	    -23.28666709	     16.82218098	    -13.51541884	    -10.42243029	     -4.33495167	    -13.42261845
      4.81000000	      2.84298901	     -2.50600784	    305.94138349	     -0.53722166	      0.92314773	      0.75902293	     19.87833793	     -6.13989367	      7.71199632	     -2.48051578	      2.71513199	     12.61838556	    -10.51347091	      5.66248561	     18.63677042	    -23.25355453	     16.72985865	    -13.42195786	    -10.40155562	     -4.53142812	    -13.19439153
      4.82000000	      3.06854654	     -2.42881609	    306.25870664	     -0.53496780	      0.92181620	      0.76801970	     20.20523473	     -6.21125220	      7.45856671	     -3.35038422	      2.82765102	     12.16420409	    -11.12233550	      5.56452647	     18.84665469	    -23.32987674	     16.61362689	    -13.30700475	    -10.30462599	     -4.72283484	    -12.97433529
      4.83000000	      3.26381104	     -2.32358807	    306.57203780	     -0.53263982	      0.92039052	      0.77711372	     20.60114902	     -6.27138561	      7.34545125	     -4.53213924	      2.92368391	     11.76996100	    -11.65557882	      5.46373694	     19.04687029	    -23.47717893	     16.46190382	    -13.19442520	    -10.15286980	     -4.89486675	    -12.79601315
      4.84000000	      3.39625566	     -2.18444832	    306.89353806	     -0.53021846	      0.91885441	      0.78626411	     21.05936411	     -6.29829020	      7.32370650	     -5.91877776	      2.89912265	     11.30933182	    -12.06425835	      5.34402740	     19.24315869	    -23.73964087	     16.28386283	    -13.03375958	     -9.92071288	     -5.01622190	    -12.60060435
      4.85000000	      3.48816299	     -2.05048224	    307.23082389	     -0.52771880	      0.91732328	      0.79549706	     21.51966763	     -6.28349278	      7.34198594	     -7.44573400	      2.77964420	     11.00909338	    -12.41502651	      5.18655418	     19.41435347	    -24.07455442	     16.05099374	    -12.87736291	     -9.66085660	     -5.08755752	    -12.44706628
